<svg width=" 100%" height=" 100%" viewBox="0 0 32 32" fill="none" xmlns="http://www.w3.org/2000/svg">
<path d="M5.23709 22.0004H1.80811V9.63672H5.50271C6.6618 9.63672 7.65387 9.88223 8.47892 10.3733C9.30396 10.8643 9.93583 11.5686 10.3745 12.4862C10.8172 13.3998 11.0366 14.4965 11.0326 15.7763C11.0285 17.0843 10.7991 18.2032 10.3443 19.1329C9.88955 20.0585 9.23152 20.7689 8.37025 21.2639C7.50898 21.7549 6.46459 22.0004 5.23709 22.0004ZM2.56272 21.3001H5.2069C6.30965 21.3001 7.23933 21.0808 7.99596 20.6421C8.75259 20.1994 9.32409 19.5655 9.71045 18.7405C10.1009 17.9154 10.294 16.9274 10.29 15.7763C10.29 14.6414 10.1029 13.6694 9.72856 12.8605C9.35427 12.0475 8.80894 11.4237 8.09255 10.989C7.3802 10.5544 6.50685 10.337 5.47253 10.337H2.56272V21.3001ZM21.2274 11.7919V9.63672H31.3815V11.7919H27.5964V22.0004H25.0126V11.7919H21.2274Z" fill="currentColor"/>
<path d="M16.5 0V32" stroke="currentColor"/>
</svg>
